<svg xmlns="http://www.w3.org/2000/svg" xmlns:xlink="http://www.w3.org/1999/xlink" width="1366" zoomAndPan="magnify" viewBox="0 0 1024.5 576" height="768" preserveAspectRatio="xMidYMid meet" version="1.0"><defs><clipPath id="e07eff975c"><path d="M 0 0.140625 L 1024 0.140625 L 1024 575.859375 L 0 575.859375 Z M 0 0.140625 " clip-rule="nonzero"/></clipPath><clipPath id="83853e9250"><path d="M 242.882812 171.257812 L 789.550781 171.257812 L 789.550781 490.773438 L 242.882812 490.773438 Z M 242.882812 171.257812 " clip-rule="nonzero"/></clipPath><clipPath id="b4c09662d7"><path d="M 515.996094 171.257812 C 365.160156 171.257812 242.882812 242.78125 242.882812 331.015625 C 242.882812 419.246094 365.160156 490.773438 515.996094 490.773438 C 666.832031 490.773438 789.109375 419.246094 789.109375 331.015625 C 789.109375 242.78125 666.832031 171.257812 515.996094 171.257812 Z M 515.996094 171.257812 " clip-rule="nonzero"/></clipPath><clipPath id="fd82c5d2bc"><path d="M 0.882812 0.257812 L 547.214844 0.257812 L 547.214844 319.773438 L 0.882812 319.773438 Z M 0.882812 0.257812 " clip-rule="nonzero"/></clipPath><clipPath id="392185585c"><path d="M 273.996094 0.257812 C 123.160156 0.257812 0.882812 71.78125 0.882812 160.015625 C 0.882812 248.246094 123.160156 319.773438 273.996094 319.773438 C 424.832031 319.773438 547.109375 248.246094 547.109375 160.015625 C 547.109375 71.78125 424.832031 0.257812 273.996094 0.257812 Z M 273.996094 0.257812 " clip-rule="nonzero"/></clipPath><clipPath id="2faf6eba81"><rect x="0" width="548" y="0" height="320"/></clipPath><clipPath id="70fa46000e"><path d="M 662 214 L 875.101562 214 L 875.101562 447.816406 L 662 447.816406 Z M 662 214 " clip-rule="nonzero"/></clipPath><clipPath id="96dd0961d1"><path d="M 678.679688 302.375 L 824.984375 218.773438 C 835.351562 212.847656 848.089844 212.890625 858.417969 218.882812 C 868.742188 224.878906 875.101562 235.914062 875.101562 247.855469 L 875.101562 414.171875 C 875.101562 426.109375 868.742188 437.148438 858.417969 443.140625 C 848.089844 449.136719 835.351562 449.179688 824.984375 443.253906 L 678.679688 359.652344 C 668.402344 353.777344 662.058594 342.851562 662.058594 331.011719 C 662.058594 319.175781 668.402344 308.246094 678.679688 302.375 Z M 678.679688 302.375 " clip-rule="nonzero"/></clipPath><clipPath id="be5c7ee98b"><path d="M 0 0 L 213.101562 0 L 213.101562 233.816406 L 0 233.816406 Z M 0 0 " clip-rule="nonzero"/></clipPath><clipPath id="e4378ac82e"><path d="M 16.679688 88.375 L 162.984375 4.773438 C 173.351562 -1.152344 186.089844 -1.109375 196.417969 4.882812 C 206.742188 10.878906 213.101562 21.914062 213.101562 33.855469 L 213.101562 200.171875 C 213.101562 212.109375 206.742188 223.148438 196.417969 229.140625 C 186.089844 235.136719 173.351562 235.179688 162.984375 229.253906 L 16.679688 145.652344 C 6.402344 139.777344 0.0585938 128.851562 0.0585938 117.011719 C 0.0585938 105.175781 6.402344 94.246094 16.679688 88.375 Z M 16.679688 88.375 " clip-rule="nonzero"/></clipPath><clipPath id="538e7fdbea"><rect x="0" width="214" y="0" height="234"/></clipPath><clipPath id="d14598b868"><path d="M 154 354.960938 L 784.824219 354.960938 L 784.824219 518.28125 L 154 518.28125 Z M 154 354.960938 " clip-rule="nonzero"/></clipPath><clipPath id="9bfcd16c64"><path d="M 574.445312 511.261719 C 542.210938 515.5 505.34375 518.28125 469.261719 518.28125 C 433.175781 518.28125 398.453125 515.898438 366.457031 511.660156 C 365.773438 511.527344 365.09375 511.527344 364.414062 511.394531 C 244.246094 494.445312 155.738281 449.6875 154.039062 400.394531 L 154.039062 377.679688 C 154.039062 371.652344 156.429688 365.875 160.691406 361.613281 C 164.953125 357.355469 170.730469 354.960938 176.753906 354.960938 L 762.121094 354.960938 C 768.144531 354.960938 773.917969 357.351562 778.171875 361.609375 C 782.429688 365.867188 784.824219 371.640625 784.824219 377.660156 L 784.824219 400.359375 C 783.121094 449.949219 695.972656 494.710938 574.445312 511.261719 Z M 574.445312 511.261719 " clip-rule="nonzero"/></clipPath><clipPath id="192562906b"><path d="M 0.00390625 0.960938 L 630.824219 0.960938 L 630.824219 164.28125 L 0.00390625 164.28125 Z M 0.00390625 0.960938 " clip-rule="nonzero"/></clipPath><clipPath id="c8e2d1cfff"><path d="M 420.445312 157.261719 C 388.210938 161.5 351.34375 164.28125 315.261719 164.28125 C 279.175781 164.28125 244.453125 161.898438 212.457031 157.660156 C 211.773438 157.527344 211.09375 157.527344 210.414062 157.394531 C 90.246094 140.445312 1.738281 95.6875 0.0390625 46.394531 L 0.0390625 23.679688 C 0.0390625 17.652344 2.429688 11.875 6.691406 7.613281 C 10.953125 3.355469 16.730469 0.960938 22.753906 0.960938 L 608.121094 0.960938 C 614.144531 0.960938 619.917969 3.351562 624.171875 7.609375 C 628.429688 11.867188 630.824219 17.640625 630.824219 23.660156 L 630.824219 46.359375 C 629.121094 95.949219 541.972656 140.710938 420.445312 157.261719 Z M 420.445312 157.261719 " clip-rule="nonzero"/></clipPath><clipPath id="a9b2a0de73"><rect x="0" width="631" y="0" height="165"/></clipPath><clipPath id="e703b23059"><path d="M 350.765625 264.59375 L 483.609375 264.59375 L 483.609375 397.433594 L 350.765625 397.433594 Z M 350.765625 264.59375 " clip-rule="nonzero"/></clipPath><clipPath id="4b35e3315d"><path d="M 417.1875 264.59375 C 380.503906 264.59375 350.765625 294.332031 350.765625 331.015625 C 350.765625 367.699219 380.503906 397.433594 417.1875 397.433594 C 453.871094 397.433594 483.609375 367.699219 483.609375 331.015625 C 483.609375 294.332031 453.871094 264.59375 417.1875 264.59375 Z M 417.1875 264.59375 " clip-rule="nonzero"/></clipPath><clipPath id="5ee18409f7"><path d="M 0.765625 0.59375 L 133.609375 0.59375 L 133.609375 133.433594 L 0.765625 133.433594 Z M 0.765625 0.59375 " clip-rule="nonzero"/></clipPath><clipPath id="05e5637795"><path d="M 67.1875 0.59375 C 30.503906 0.59375 0.765625 30.332031 0.765625 67.015625 C 0.765625 103.699219 30.503906 133.433594 67.1875 133.433594 C 103.871094 133.433594 133.609375 103.699219 133.609375 67.015625 C 133.609375 30.332031 103.871094 0.59375 67.1875 0.59375 Z M 67.1875 0.59375 " clip-rule="nonzero"/></clipPath><clipPath id="6495827aa1"><rect x="0" width="134" y="0" height="134"/></clipPath><clipPath id="ddb90846d4"><path d="M 51 0.140625 L 642 0.140625 L 642 339 L 51 339 Z M 51 0.140625 " clip-rule="nonzero"/></clipPath><clipPath id="9076aa0263"><path d="M 148.902344 77.277344 L 242.882812 77.277344 L 242.882812 171.257812 L 148.902344 171.257812 Z M 148.902344 77.277344 " clip-rule="nonzero"/></clipPath><clipPath id="93caad6af2"><path d="M 195.890625 77.277344 C 169.9375 77.277344 148.902344 98.316406 148.902344 124.265625 C 148.902344 150.21875 169.9375 171.257812 195.890625 171.257812 C 221.84375 171.257812 242.882812 150.21875 242.882812 124.265625 C 242.882812 98.316406 221.84375 77.277344 195.890625 77.277344 Z M 195.890625 77.277344 " clip-rule="nonzero"/></clipPath><clipPath id="f92110072f"><path d="M 0.902344 0.277344 L 94.882812 0.277344 L 94.882812 94.257812 L 0.902344 94.257812 Z M 0.902344 0.277344 " clip-rule="nonzero"/></clipPath><clipPath id="3792960b1e"><path d="M 47.890625 0.277344 C 21.9375 0.277344 0.902344 21.316406 0.902344 47.265625 C 0.902344 73.21875 21.9375 94.257812 47.890625 94.257812 C 73.84375 94.257812 94.882812 73.21875 94.882812 47.265625 C 94.882812 21.316406 73.84375 0.277344 47.890625 0.277344 Z M 47.890625 0.277344 " clip-rule="nonzero"/></clipPath><clipPath id="9108afb4de"><rect x="0" width="95" y="0" height="95"/></clipPath></defs><g clip-path="url(#e07eff975c)"><path fill="none" d="M 0 0.140625 L 1024 0.140625 L 1024 575.859375 L 0 575.859375 Z M 0 0.140625 " fill-opacity="1" fill-rule="nonzero"/><path fill="none" d="M 0 0.140625 L 1024 0.140625 L 1024 575.859375 L 0 575.859375 Z M 0 0.140625 " fill-opacity="1" fill-rule="nonzero"/></g><g clip-path="url(#83853e9250)"><g clip-path="url(#b4c09662d7)"><g transform="matrix(1, 0, 0, 1, 242, 171)"><g clip-path="url(#2faf6eba81)"><g clip-path="url(#fd82c5d2bc)"><g clip-path="url(#392185585c)"><path fill="#0d1824" d="M 0.882812 0.257812 L 547.550781 0.257812 L 547.550781 319.773438 L 0.882812 319.773438 Z M 0.882812 0.257812 " fill-opacity="1" fill-rule="nonzero"/></g></g></g></g></g></g><g clip-path="url(#70fa46000e)"><g clip-path="url(#96dd0961d1)"><g transform="matrix(1, 0, 0, 1, 662, 214)"><g clip-path="url(#538e7fdbea)"><g clip-path="url(#be5c7ee98b)"><g clip-path="url(#e4378ac82e)"><path fill="#0d1824" d="M -33.4375 257.890625 L -33.4375 -24.277344 L 213.101562 -24.277344 L 213.101562 257.890625 Z M -33.4375 257.890625 " fill-opacity="1" fill-rule="nonzero"/></g></g></g></g></g></g><g clip-path="url(#d14598b868)"><g clip-path="url(#9bfcd16c64)"><g transform="matrix(1, 0, 0, 1, 154, 354)"><g clip-path="url(#a9b2a0de73)"><g clip-path="url(#192562906b)"><g clip-path="url(#c8e2d1cfff)"><path fill="#0d1824" d="M 630.824219 164.28125 L -0.132812 164.28125 L -0.132812 0.960938 L 630.824219 0.960938 Z M 630.824219 164.28125 " fill-opacity="1" fill-rule="nonzero"/></g></g></g></g></g></g><g clip-path="url(#e703b23059)"><g clip-path="url(#4b35e3315d)"><g transform="matrix(1, 0, 0, 1, 350, 264)"><g clip-path="url(#6495827aa1)"><g clip-path="url(#5ee18409f7)"><g clip-path="url(#05e5637795)"><path fill="#182d36" d="M 0.765625 0.59375 L 133.609375 0.59375 L 133.609375 133.433594 L 0.765625 133.433594 Z M 0.765625 0.59375 " fill-opacity="1" fill-rule="nonzero"/></g></g></g></g></g></g><g clip-path="url(#ddb90846d4)"><path stroke-linecap="round" transform="matrix(0.72151, 0.203407, -0.203407, 0.72151, 196.779819, -3.144586)" fill="none" stroke-linejoin="miter" d="M 21.303772 163.706574 C 244.445902 -33.311485 399.188297 -34.561004 485.537387 159.961617 " stroke="#0d1824" stroke-width="30" stroke-opacity="1" stroke-miterlimit="4"/></g><g clip-path="url(#9076aa0263)"><g clip-path="url(#93caad6af2)"><g transform="matrix(1, 0, 0, 1, 148, 77)"><g clip-path="url(#9108afb4de)"><g clip-path="url(#f92110072f)"><g clip-path="url(#3792960b1e)"><path fill="#182d36" d="M 0.902344 0.277344 L 94.882812 0.277344 L 94.882812 94.257812 L 0.902344 94.257812 Z M 0.902344 0.277344 " fill-opacity="1" fill-rule="nonzero"/></g></g></g></g></g></g></svg>